<?xml version="1.0" encoding="UTF-8" standalone="no"?>
<svg
   width="1080"
   zoomAndPan="magnify"
   viewBox="0 0 810 809.999993"
   height="1080"
   preserveAspectRatio="xMidYMid meet"
   version="1.0"
   id="svg92"
   sodipodi:docname="svg logo.svg"
   inkscape:version="1.4 (86a8ad7, 2024-10-11)"
   xmlns:inkscape="http://www.inkscape.org/namespaces/inkscape"
   xmlns:sodipodi="http://sodipodi.sourceforge.net/DTD/sodipodi-0.dtd"
   xmlns="http://www.w3.org/2000/svg"
   xmlns:svg="http://www.w3.org/2000/svg">
  <sodipodi:namedview
     id="namedview92"
     pagecolor="#ffffff"
     bordercolor="#000000"
     borderopacity="0.25"
     inkscape:showpageshadow="2"
     inkscape:pageopacity="0.0"
     inkscape:pagecheckerboard="0"
     inkscape:deskcolor="#d1d1d1"
     showgrid="false"
     inkscape:zoom="0.35787037"
     inkscape:cx="220.75032"
     inkscape:cy="482.01811"
     inkscape:window-width="1920"
     inkscape:window-height="991"
     inkscape:window-x="-9"
     inkscape:window-y="-9"
     inkscape:window-maximized="1"
     inkscape:current-layer="svg92" />
  <defs
     id="defs6">
    <g
       id="g1" />
    <clipPath
       id="85ff2ff2a3">
      <rect
         x="0"
         width="218"
         y="0"
         height="52"
         id="rect1" />
    </clipPath>
    <clipPath
       id="871fb379a1">
      <rect
         x="0"
         width="441"
         y="0"
         height="32"
         id="rect2" />
    </clipPath>
    <clipPath
       id="6bca18fa8b">
      <path
         d="M 265.484375 214.410156 L 542.984375 214.410156 L 542.984375 447.636719 L 265.484375 447.636719 Z M 265.484375 214.410156 "
         clip-rule="nonzero"
         id="path2" />
    </clipPath>
    <clipPath
       id="567894c201">
      <path
         d="M 404.160156 343.671875 L 415.191406 343.671875 L 415.191406 367.277344 L 404.160156 367.277344 Z M 404.160156 343.671875 "
         clip-rule="nonzero"
         id="path3" />
    </clipPath>
    <clipPath
       id="8ee8f8816a">
      <path
         d="M 412.058594 343.714844 L 406.246094 344.496094 C 406.160156 344.511719 406.074219 344.582031 406.074219 344.664062 L 404.203125 357.125 C 404.191406 357.269531 404.304688 357.382812 404.445312 357.367188 L 407.960938 356.773438 C 408.101562 356.742188 408.230469 356.886719 408.203125 357.027344 L 405.507812 366.992188 C 405.480469 367.121094 405.566406 367.25 405.707031 367.25 C 405.777344 367.25 405.847656 367.207031 405.890625 367.148438 L 415.164062 350.933594 C 415.246094 350.777344 415.121094 350.589844 414.949219 350.621094 L 410.128906 351.570312 C 409.972656 351.597656 409.847656 351.457031 409.890625 351.300781 L 412.285156 343.984375 C 412.328125 343.84375 412.214844 343.703125 412.058594 343.714844 Z M 412.058594 343.714844 "
         clip-rule="nonzero"
         id="path4" />
    </clipPath>
    <clipPath
       id="3b7be1c2c4">
      <path
         d="M 0.160156 0.679688 L 11.191406 0.679688 L 11.191406 24.277344 L 0.160156 24.277344 Z M 0.160156 0.679688 "
         clip-rule="nonzero"
         id="path5" />
    </clipPath>
    <clipPath
       id="56dfd566a0">
      <path
         d="M 8.058594 0.714844 L 2.246094 1.496094 C 2.160156 1.511719 2.074219 1.582031 2.074219 1.664062 L 0.203125 14.125 C 0.191406 14.269531 0.304688 14.382812 0.445312 14.367188 L 3.960938 13.773438 C 4.101562 13.742188 4.230469 13.886719 4.203125 14.027344 L 1.507812 23.992188 C 1.480469 24.121094 1.566406 24.25 1.707031 24.25 C 1.777344 24.25 1.847656 24.207031 1.890625 24.148438 L 11.164062 7.933594 C 11.246094 7.777344 11.121094 7.589844 10.949219 7.621094 L 6.128906 8.570312 C 5.972656 8.597656 5.847656 8.457031 5.890625 8.300781 L 8.285156 0.984375 C 8.328125 0.84375 8.214844 0.703125 8.058594 0.714844 Z M 8.058594 0.714844 "
         clip-rule="nonzero"
         id="path6" />
    </clipPath>
    <clipPath
       id="d72573fe62">
      <rect
         x="0"
         width="12"
         y="0"
         height="25"
         id="rect6" />
    </clipPath>
  </defs>
  <g
     clip-path="url(#6bca18fa8b)"
     id="g86"
     style="fill:#ff8539;fill-opacity:1;stroke-width:1.00063;stroke-dasharray:none"
     transform="matrix(2.6730814,0,0,2.6730814,-673.65948,-503.17572)">
    <path
       fill="#ff8539"
       d="m 441.33203,324.46875 v 30.36719 c 0,14.05468 -8.91406,26.125 -21.35937,30.86718 v 37.4375 h 43.46875 V 308.74609 l -59.22657,-59.23047 -59.25,59.23047 v 114.39453 h 28.34375 v 24.81641 H 320.16797 V 333.53906 l -19.63281,19.63281 h -35.05079 l 54.6836,-54.68359 v -37.55859 h 24.78906 v 12.74218 l 41.70703,-41.70312 17.55078,-17.52734 17.52735,17.52734 41.70703,41.70312 24.79297,24.81641 54.68359,54.68359 h -35.05859 l -19.63282,-19.63281 v 114.41797 h -91.60546 v -62.25391 c -12.44532,-4.74218 -21.33985,-16.8125 -21.33985,-30.86718 v -30.36719 h 10.1211 v -15.54297 c 0,-4.19141 3.43359,-7.625 7.625,-7.625 4.20312,0 7.64062,3.43359 7.64062,7.625 v 15.54297 h 15.26172 v -15.54297 c 0,-4.19141 3.4375,-7.625 7.625,-7.625 4.20703,0 7.64062,3.43359 7.64062,7.625 v 15.54297 z m -46.44922,19.59375 v 10.77344 c 0,7.36328 6.03516,13.41797 13.41406,13.41797 7.38672,0 13.41797,-6.03907 13.41797,-13.41797 V 344.0625 Z m 0,0"
       fill-opacity="1"
       fill-rule="evenodd"
       id="path85"
       style="fill:#ff8539;fill-opacity:1;stroke-width:1.00063;stroke-dasharray:none" />
  </g>
  <g
     clip-path="url(#567894c201)"
     id="g92"
     transform="matrix(1.6682949,0,0,1.6682949,-268.03114,-146.71387)">
    <g
       clip-path="url(#8ee8f8816a)"
       id="g91">
      <g
         transform="translate(404,343)"
         id="g90">
        <g
           clip-path="url(#d72573fe62)"
           id="g89">
          <g
             clip-path="url(#3b7be1c2c4)"
             id="g88">
            <g
               clip-path="url(#56dfd566a0)"
               id="g87">
              <path
                 fill="#ffffff"
                 d="M 0.203125,0.714844 H 11.191406 V 24.234375 H 0.203125 Z m 0,0"
                 fill-opacity="1"
                 fill-rule="nonzero"
                 id="path86" />
            </g>
          </g>
        </g>
      </g>
    </g>
  </g>
</svg>
